<svg xmlns="http://www.w3.org/2000/svg" viewBox="0 0 1024 1024" width="1024" height="1024"><path d="M 316.0 851.5 A 392 392 0 1 1 708.0 851.5" fill="none" stroke="#80cd29" stroke-width="70" stroke-linecap="round"></path>
<path d="M 263.3 679.8 A 300 300 0 1 1 532.9 811.3" fill="none" stroke="#ec166c" stroke-width="66" stroke-linecap="round"></path>
<path d="M 300.1 541.8 A 214 214 0 1 1 431.8 710.4" fill="none" stroke="#008036" stroke-width="60" stroke-linecap="round"></path>
<path d="M 384.6 470.6 A 134 134 0 1 1 412.4 601.7" fill="none" stroke="#57bda8" stroke-width="50" stroke-linecap="round"></path>
<path d="M 512.0 438.0 A 74 74 0 1 1 442.5 537.3" fill="none" stroke="#80cd29" stroke-width="10" stroke-linecap="round" opacity="0.9"></path>
<path d="M 538.3 458.1 A 60 60 0 1 1 452.3 505.7" fill="none" stroke="#ec166c" stroke-width="10" stroke-linecap="round" opacity="0.9"></path>
<path d="M 512.0 464.0 A 48 48 0 1 1 466.9 528.4" fill="none" stroke="#008036" stroke-width="10" stroke-linecap="round" opacity="0.9"></path>
<path d="M 512.0 476.0 A 36 36 0 1 1 478.2 524.3" fill="none" stroke="#57bda8" stroke-width="10" stroke-linecap="round" opacity="0.9"></path>
</svg>